<svg xmlns:xlink="http://www.w3.org/1999/xlink" xmlns="http://www.w3.org/2000/svg" width="1711px" height="330px" viewBox="0 0 1711 330" style="overflow: hidden; display: block; width: 1711px; height: 330px;"><defs/><g style="pointer-events:visiblePainted" transform="translate(1.3430006494176325 0)" image-rendering="auto" shape-rendering="auto"><g><path fill="none" stroke="rgb(169,169,169)" d="M 501.6666666666667,240 L 501.6666666666667,250 L 635,250 L 635,270" stroke-opacity="1" stroke-width="1" stroke-linecap="butt" stroke-linejoin="miter" stroke-miterlimit="10"/></g><g><path fill="none" stroke="rgb(169,169,169)" d="M 485,240 L 485,270" stroke-opacity="1" stroke-width="1" stroke-linecap="butt" stroke-linejoin="miter" stroke-miterlimit="10"/></g><g><path fill="none" stroke="rgb(169,169,169)" d="M 468.3333333333333,240 L 468.3333333333333,250 L 335,250 L 335,270" stroke-opacity="1" stroke-width="1" stroke-linecap="butt" stroke-linejoin="miter" stroke-miterlimit="10"/></g><g><path fill="none" stroke="rgb(169,169,169)" d="M 485,160 L 485,180" stroke-opacity="1" stroke-width="1" stroke-linecap="butt" stroke-linejoin="miter" stroke-miterlimit="10"/></g><g><path fill="none" stroke="rgb(169,169,169)" d="M 197.5,60 L 197.5,70 L 485,70 L 485,100" stroke-opacity="1" stroke-width="1" stroke-linecap="butt" stroke-linejoin="miter" stroke-miterlimit="10"/></g><g><path fill="none" stroke="rgb(169,169,169)" d="M 185,240 L 185,270" stroke-opacity="1" stroke-width="1" stroke-linecap="butt" stroke-linejoin="miter" stroke-miterlimit="10"/></g><g><path fill="none" stroke="rgb(169,169,169)" d="M 160,240 L 160,250 L 35,250 L 35,270" stroke-opacity="1" stroke-width="1" stroke-linecap="butt" stroke-linejoin="miter" stroke-miterlimit="10"/></g><g><path fill="none" stroke="rgb(169,169,169)" d="M 172.5,160 L 172.5,180" stroke-opacity="1" stroke-width="1" stroke-linecap="butt" stroke-linejoin="miter" stroke-miterlimit="10"/></g><g><path fill="none" stroke="rgb(169,169,169)" d="M 172.5,60 L 172.5,100" stroke-opacity="1" stroke-width="1" stroke-linecap="butt" stroke-linejoin="miter" stroke-miterlimit="10"/></g><g><path fill="none" stroke="rgb(169,169,169)" d="M 1518.3333333333333,240 L 1518.3333333333333,250 L 1385,250 L 1385,270" stroke-opacity="1" stroke-width="1" stroke-linecap="butt" stroke-linejoin="miter" stroke-miterlimit="10"/></g><g><path fill="none" stroke="rgb(169,169,169)" d="M 1535,240 L 1535,270" stroke-opacity="1" stroke-width="1" stroke-linecap="butt" stroke-linejoin="miter" stroke-miterlimit="10"/></g><g><path fill="none" stroke="rgb(169,169,169)" d="M 1551.6666666666667,240 L 1551.6666666666667,250 L 1685,250 L 1685,270" stroke-opacity="1" stroke-width="1" stroke-linecap="butt" stroke-linejoin="miter" stroke-miterlimit="10"/></g><g><path fill="none" stroke="rgb(169,169,169)" d="M 1535,160 L 1535,180" stroke-opacity="1" stroke-width="1" stroke-linecap="butt" stroke-linejoin="miter" stroke-miterlimit="10"/></g><g><path fill="none" stroke="rgb(169,169,169)" d="M 1535,60 L 1535,100" stroke-opacity="1" stroke-width="1" stroke-linecap="butt" stroke-linejoin="miter" stroke-miterlimit="10"/></g><g><path fill="none" stroke="rgb(169,169,169)" d="M 1101.6666666666667,240 L 1101.6666666666667,250 L 1235,250 L 1235,270" stroke-opacity="1" stroke-width="1" stroke-linecap="butt" stroke-linejoin="miter" stroke-miterlimit="10"/></g><g><path fill="none" stroke="rgb(169,169,169)" d="M 1085,240 L 1085,270" stroke-opacity="1" stroke-width="1" stroke-linecap="butt" stroke-linejoin="miter" stroke-miterlimit="10"/></g><g><path fill="none" stroke="rgb(169,169,169)" d="M 1068.3333333333333,240 L 1068.3333333333333,250 L 935,250 L 935,270" stroke-opacity="1" stroke-width="1" stroke-linecap="butt" stroke-linejoin="miter" stroke-miterlimit="10"/></g><g><path fill="none" stroke="rgb(169,169,169)" d="M 1085,160 L 1085,180" stroke-opacity="1" stroke-width="1" stroke-linecap="butt" stroke-linejoin="miter" stroke-miterlimit="10"/></g><g><path fill="none" stroke="rgb(169,169,169)" d="M 810,60 L 810,70 L 1085,70 L 1085,100" stroke-opacity="1" stroke-width="1" stroke-linecap="butt" stroke-linejoin="miter" stroke-miterlimit="10"/></g><g><path fill="none" stroke="rgb(169,169,169)" d="M 797.5,60 L 797.5,80 L 935,80 L 935,100" stroke-opacity="1" stroke-width="1" stroke-linecap="butt" stroke-linejoin="miter" stroke-miterlimit="10"/></g><g><path fill="none" stroke="rgb(169,169,169)" d="M 785,60 L 785,100" stroke-opacity="1" stroke-width="1" stroke-linecap="butt" stroke-linejoin="miter" stroke-miterlimit="10"/></g><g><path fill="none" stroke="rgb(169,169,169)" d="M 772.5,60 L 772.5,70 L 635,70 L 635,100" stroke-opacity="1" stroke-width="1" stroke-linecap="butt" stroke-linejoin="miter" stroke-miterlimit="10"/></g><g><path fill="none" stroke="rgb(169,169,169)" d="M 210,30 L 766.25,30" stroke-opacity="1" stroke-width="1" stroke-linecap="butt" stroke-linejoin="miter" stroke-miterlimit="10"/></g><g><path fill="none" stroke="rgb(169,169,169)" d="M 766.25,30 L 210,30" stroke-opacity="1" stroke-width="1" stroke-linecap="butt" stroke-linejoin="miter" stroke-miterlimit="10"/></g><g transform="translate(160 0)"><g transform="scale(2.78)">
            <svg svgBox="0 0 18 18" fill="msportalfx-svg-placeholder" role="presentation" focusable="false"><g><title/><defs><linearGradient id="ygc3_0" x1="9.88" x2="11.52" y1="8.59" y2="10.23" gradientTransform="rotate(-.08 -285.464 -1454.08)" gradientUnits="userSpaceOnUse"><stop offset="0" stop-color="#86d633"/><stop offset=".24" stop-color="#83d232"/><stop offset=".5" stop-color="#7cc52f"/><stop offset=".76" stop-color="#6fb02a"/><stop offset="1" stop-color="#5e9624"/></linearGradient><linearGradient id="ygc3_1" x1="6.18" x2="7.81" y1="8.59" y2="10.23"/><linearGradient id="ygc3_2" x1="2.48" x2="4.11" y1="8.59" y2="10.23"/></defs><title>Icon-networking-61</title><circle cx="12.74" cy="8.99" r="1.16" fill="url(#ygc3_0)"/><circle cx="9.04" cy="9" r="1.16" fill="url(#ygc3_1)"/><circle cx="5.34" cy="9" r="1.16" fill="url(#ygc3_2)"/><path fill="#50e6ff" d="M6.182 13.638l-.664.665a.3.3 0 01-.424 0L.18 9.404a.6.6 0 01-.001-.848l.663-.666 5.34 5.324a.3.3 0 010 .425z"/><path fill="#1490df" d="M5.418 3.708l.666.664a.3.3 0 010 .424L.838 10.057l-.666-.663a.6.6 0 01-.001-.849L4.994 3.71a.3.3 0 01.424 0z"/><path fill="#50e6ff" d="M17.157 7.88l.663.666a.6.6 0 010 .848l-4.915 4.9a.3.3 0 01-.424 0l-.664-.666a.3.3 0 010-.424l5.34-5.324z"/><path fill="#1490df" d="M17.818 9.387l-.665.664-5.247-5.261a.3.3 0 010-.425l.674-.67a.3.3 0 01.424 0l4.823 4.836a.6.6 0 01-.002.849z"/></g></svg>
        </g></g><g transform="translate(460 100)"><g transform="scale(1.0)">
            <svg svgBox="0 0 50 50" fill="msportalfx-svg-placeholder" role="presentation" focusable="false"><g><title/><path d="M49.7 25.7c.5-.5.4-1.3 0-1.8l-2.4-2.4L36.5 11c-.5-.5-1.2-.5-1.7 0s-.6 1.3 0 1.8l11.3 11.1c.5.5.5 1.3 0 1.8L34.6 37.2c-.5.5-.5 1.3 0 1.8s1.3.4 1.7 0L47 28.4l.1-.1 2.6-2.6zm-49.4 0c-.5-.5-.4-1.3 0-1.8l2.4-2.4L13.5 11c.5-.5 1.2-.5 1.7 0s.6 1.3 0 1.8L4.1 23.9c-.5.5-.5 1.3 0 1.8l11.3 11.5c.5.5.5 1.3 0 1.8s-1.3.4-1.7 0L2.8 28.5l-.1-.1-2.4-2.7z" fill="#3999C6"/><path d="M28.4 24.8c0 1.9-1.6 3.3-3.3 3.3-1.7 0-3.5-1.6-3.5-3.3s1.4-3.3 3.5-3.3c2 0 3.3 1.6 3.3 3.3z" fill="#7fba00"/></g></svg>
        </g></g><g transform="translate(460 180)"><g transform="scale(2.78)">
            <svg svgBox="0 0 18 18" fill="msportalfx-svg-placeholder" role="presentation" focusable="false"><g><title/><defs><linearGradient id="ygc3_3" x1="9.01" x2="9.01" y1="16.5" y2="1.5" gradientUnits="userSpaceOnUse"><stop offset="0" stop-color="#5e9641"/><stop offset=".34" stop-color="#6baa42"/><stop offset=".67" stop-color="#73b743"/><stop offset="1" stop-color="#76bb43"/></linearGradient></defs><title>Icon-networking-80</title><path fill="#ffca00" d="M15.89 2.91h1.27a.34.34 0 01.34.34v3.5a.34.34 0 01-.34.34h-1.27V2.91zm0 6.09h1.27a.34.34 0 01.34.34v5.86a.34.34 0 01-.34.34h-1.27V9z"/><rect width="13.76" height="15" x="2.13" y="1.5" fill="url(#ygc3_3)" rx=".69"/><path fill="#b4ec36" d="M5.9 12.9h-.71a.2.2 0 01-.19-.21V4.34a.19.19 0 01.19-.2h1.93a.19.19 0 01.19.2.2.2 0 01-.19.21H5.38v7.93h.52a.2.2 0 01.19.21.21.21 0 01-.19.21z"/><path fill="#b4ec36" d="M6 13.92H4.4a.2.2 0 01-.19-.21L4.08 3.38a.2.2 0 01.06-.15.16.16 0 01.13-.06h2.85v.41H4.47l.12 9.92H6zm6-.92h-1.59a.19.19 0 01-.14-.07.18.18 0 01-.06-.14V7.9a.19.19 0 01.19-.2h.91V5.45h.38v2.44a.2.2 0 01-.18.21h-.91v4.42H12z"/><rect width="6.14" height="3.11" x="7.07" y="2.29" fill="#365615" rx=".26"/><rect width="4.9" height="1.09" x="5.86" y="12.69" fill="#365615" rx=".26" transform="rotate(90 8.305 13.235)"/><rect width="4.9" height="1.09" x="3.99" y="12.71" fill="#365615" rx=".26" transform="rotate(90 6.44 13.26)"/><rect width="4.9" height="1.09" x="9.98" y="12.71" fill="#f2f2f2" rx=".26" transform="rotate(90 12.425 13.255)"/><ellipse cx="8.11" cy="8.06" fill="#f2f2f2" rx="1.04" ry="1.12"/><path fill="#3b3b3b" d="M2.11 12.25H.84a.34.34 0 01-.34-.3V6.09a.34.34 0 01.34-.34h1.27v6.5z"/></g></svg>
        </g></g><g transform="translate(610 270)"><g transform="scale(2.78)">
            <svg svgBox="0 0 18 18" fill="msportalfx-svg-placeholder" role="presentation" focusable="false"><g><title/><defs><linearGradient id="ygc3_4" x1="8.88" x2="8.88" y1="12.21" y2=".21" gradientUnits="userSpaceOnUse"><stop offset="0" stop-color="#0078d4"/><stop offset=".82" stop-color="#5ea0ef"/></linearGradient><linearGradient id="ygc3_5" x1="8.88" x2="8.88" y1="16.84" y2="12.21" gradientUnits="userSpaceOnUse"><stop offset=".15" stop-color="#ccc"/><stop offset="1" stop-color="#707070"/></linearGradient></defs><title>Icon-compute-21</title><rect width="18" height="12" x="-.12" y=".21" fill="url(#ygc3_4)" rx=".6"/><path fill="#50e6ff" d="M11.88 4.46v3.49l-3 1.76v-3.5l3-1.75z"/><path fill="#c3f1ff" d="M11.88 4.46l-3 1.76-3-1.76 3-1.75 3 1.75z"/><path fill="#9cebff" d="M8.88 6.22v3.49l-3-1.76V4.46l3 1.76z"/><path fill="#c3f1ff" d="M5.88 7.95l3-1.74v3.5l-3-1.76z"/><path fill="#9cebff" d="M11.88 7.95l-3-1.74v3.5l3-1.76z"/><path fill="url(#ygc3_5)" d="M12.49 15.84c-1.78-.28-1.85-1.56-1.85-3.63H7.11c0 2.07-.06 3.35-1.84 3.63a1 1 0 00-.89 1h9a1 1 0 00-.89-1z"/></g></svg>
        </g></g><g transform="translate(460 270)"><g transform="scale(2.78)">
            <svg svgBox="0 0 18 18" fill="msportalfx-svg-placeholder" role="presentation" focusable="false"><g><title/><defs><linearGradient id="ygc3_6" x1="9.01" x2="9.01" y1=".75" y2="17.25" gradientUnits="userSpaceOnUse"><stop offset="0" stop-color="#5ea0ef"/><stop offset=".18" stop-color="#559cec"/><stop offset=".47" stop-color="#3c91e5"/><stop offset=".84" stop-color="#1380da"/><stop offset="1" stop-color="#0078d4"/></linearGradient></defs><title>Icon-networking-67</title><path fill="#0078d4" d="M16.36 8.4c0 4.84-5.85 8.74-7.12 9.53a.46.46 0 01-.48 0c-1.27-.79-7.12-4.69-7.12-9.53V2.58a.46.46 0 01.45-.46C6.64 2 5.59 0 9 0s2.36 2 6.91 2.12a.46.46 0 01.45.46z"/><path fill="#6bb9f2" d="M15.75 8.45c0 4.44-5.36 8-6.53 8.74a.43.43 0 01-.44 0c-1.17-.72-6.53-4.3-6.53-8.74V3.11a.42.42 0 01.41-.42C6.83 2.58 5.87.75 9 .75s2.17 1.83 6.34 1.94a.42.42 0 01.41.42z"/><path fill="url(#ygc3_6)" d="M9 9V.75c3.13 0 2.17 1.83 6.34 1.94a.43.43 0 01.41.43v5.34a4.89 4.89 0 010 .54zm0 0H2.28c.4 4.18 5.38 7.5 6.5 8.19a.39.39 0 00.18.06H9z"/><path fill="#50e6ff" d="M2.66 2.69C6.83 2.58 5.87.75 9 .75V9H2.28a4.89 4.89 0 010-.54V3.12a.43.43 0 01.38-.43zM15.72 9H9v8.25a.39.39 0 00.18-.06c1.16-.69 6.14-4.01 6.54-8.19z"/></g></svg>
        </g></g><g transform="translate(310 270)"><g transform="scale(2.78)">
            <svg svgBox="0 0 18 18" fill="msportalfx-svg-placeholder" role="presentation" focusable="false"><g><title/><defs><linearGradient id="ygc3_7" x1="9" x2="9" y1="15.83" y2="5.79" gradientUnits="userSpaceOnUse"><stop offset="0" stop-color="#32bedd"/><stop offset=".18" stop-color="#32caea"/><stop offset=".41" stop-color="#32d2f2"/><stop offset=".78" stop-color="#32d4f5"/></linearGradient></defs><title>Icon-networking-69</title><path fill="url(#ygc3_7)" d="M.5 5.79h17v9.48a.57.57 0 01-.57.57H1.07a.57.57 0 01-.57-.57V5.79z"/><path fill="#767676" d="M1.07 2.17h15.86a.57.57 0 01.57.57v3.05H.5V2.73a.57.57 0 01.57-.56z"/><circle cx="12.82" cy="10.19" r="1.38" fill="#f2f2f2"/><circle cx="9.06" cy="10.19" r="1.38" fill="#f2f2f2"/><circle cx="5.18" cy="10.19" r="1.38" fill="#f2f2f2"/><rect width="12.43" height="1.46" x="2.79" y="3.25" fill="#f2f2f2" rx=".28"/></g></svg>
        </g></g><g transform="translate(147.5 100)"><g transform="scale(1.0)">
            <svg svgBox="0 0 50 50" fill="msportalfx-svg-placeholder" role="presentation" focusable="false"><g><title/><path d="M49.7 25.7c.5-.5.4-1.3 0-1.8l-2.4-2.4L36.5 11c-.5-.5-1.2-.5-1.7 0s-.6 1.3 0 1.8l11.3 11.1c.5.5.5 1.3 0 1.8L34.6 37.2c-.5.5-.5 1.3 0 1.8s1.3.4 1.7 0L47 28.4l.1-.1 2.6-2.6zm-49.4 0c-.5-.5-.4-1.3 0-1.8l2.4-2.4L13.5 11c.5-.5 1.2-.5 1.7 0s.6 1.3 0 1.8L4.1 23.9c-.5.5-.5 1.3 0 1.8l11.3 11.5c.5.5.5 1.3 0 1.8s-1.3.4-1.7 0L2.8 28.5l-.1-.1-2.4-2.7z" fill="#3999C6"/><path d="M28.4 24.8c0 1.9-1.6 3.3-3.3 3.3-1.7 0-3.5-1.6-3.5-3.3s1.4-3.3 3.5-3.3c2 0 3.3 1.6 3.3 3.3z" fill="#7fba00"/></g></svg>
        </g></g><g transform="translate(147.5 180)"><g transform="scale(2.78)">
            <svg svgBox="0 0 18 18" fill="msportalfx-svg-placeholder" role="presentation" focusable="false"><g><title/><defs><linearGradient id="ygc3_8" x1="9.01" x2="9.01" y1="16.5" y2="1.5" gradientUnits="userSpaceOnUse"><stop offset="0" stop-color="#5e9641"/><stop offset=".34" stop-color="#6baa42"/><stop offset=".67" stop-color="#73b743"/><stop offset="1" stop-color="#76bb43"/></linearGradient></defs><title>Icon-networking-80</title><path fill="#ffca00" d="M15.89 2.91h1.27a.34.34 0 01.34.34v3.5a.34.34 0 01-.34.34h-1.27V2.91zm0 6.09h1.27a.34.34 0 01.34.34v5.86a.34.34 0 01-.34.34h-1.27V9z"/><rect width="13.76" height="15" x="2.13" y="1.5" fill="url(#ygc3_8)" rx=".69"/><path fill="#b4ec36" d="M5.9 12.9h-.71a.2.2 0 01-.19-.21V4.34a.19.19 0 01.19-.2h1.93a.19.19 0 01.19.2.2.2 0 01-.19.21H5.38v7.93h.52a.2.2 0 01.19.21.21.21 0 01-.19.21z"/><path fill="#b4ec36" d="M6 13.92H4.4a.2.2 0 01-.19-.21L4.08 3.38a.2.2 0 01.06-.15.16.16 0 01.13-.06h2.85v.41H4.47l.12 9.92H6zm6-.92h-1.59a.19.19 0 01-.14-.07.18.18 0 01-.06-.14V7.9a.19.19 0 01.19-.2h.91V5.45h.38v2.44a.2.2 0 01-.18.21h-.91v4.42H12z"/><rect width="6.14" height="3.11" x="7.07" y="2.29" fill="#365615" rx=".26"/><rect width="4.9" height="1.09" x="5.86" y="12.69" fill="#365615" rx=".26" transform="rotate(90 8.305 13.235)"/><rect width="4.9" height="1.09" x="3.99" y="12.71" fill="#365615" rx=".26" transform="rotate(90 6.44 13.26)"/><rect width="4.9" height="1.09" x="9.98" y="12.71" fill="#f2f2f2" rx=".26" transform="rotate(90 12.425 13.255)"/><ellipse cx="8.11" cy="8.06" fill="#f2f2f2" rx="1.04" ry="1.12"/><path fill="#3b3b3b" d="M2.11 12.25H.84a.34.34 0 01-.34-.3V6.09a.34.34 0 01.34-.34h1.27v6.5z"/></g></svg>
        </g></g><g transform="translate(160 270)"><g transform="scale(2.78)">
            <svg svgBox="0 0 18 18" fill="msportalfx-svg-placeholder" role="presentation" focusable="false"><g><title/><defs><linearGradient id="ygc3_9" x1="8.88" x2="8.88" y1="12.21" y2=".21" gradientUnits="userSpaceOnUse"><stop offset="0" stop-color="#0078d4"/><stop offset=".82" stop-color="#5ea0ef"/></linearGradient><linearGradient id="ygc3_10" x1="8.88" x2="8.88" y1="16.84" y2="12.21" gradientUnits="userSpaceOnUse"><stop offset=".15" stop-color="#ccc"/><stop offset="1" stop-color="#707070"/></linearGradient></defs><title>Icon-compute-21</title><rect width="18" height="12" x="-.12" y=".21" fill="url(#ygc3_9)" rx=".6"/><path fill="#50e6ff" d="M11.88 4.46v3.49l-3 1.76v-3.5l3-1.75z"/><path fill="#c3f1ff" d="M11.88 4.46l-3 1.76-3-1.76 3-1.75 3 1.75z"/><path fill="#9cebff" d="M8.88 6.22v3.49l-3-1.76V4.46l3 1.76z"/><path fill="#c3f1ff" d="M5.88 7.95l3-1.74v3.5l-3-1.76z"/><path fill="#9cebff" d="M11.88 7.95l-3-1.74v3.5l3-1.76z"/><path fill="url(#ygc3_10)" d="M12.49 15.84c-1.78-.28-1.85-1.56-1.85-3.63H7.11c0 2.07-.06 3.35-1.84 3.63a1 1 0 00-.89 1h9a1 1 0 00-.89-1z"/></g></svg>
        </g></g><g transform="translate(10 270)"><g transform="scale(2.78)">
            <svg svgBox="0 0 18 18" fill="msportalfx-svg-placeholder" role="presentation" focusable="false"><g><title/><defs><linearGradient id="ygc3_11" x1="9.01" x2="9.01" y1=".75" y2="17.25" gradientUnits="userSpaceOnUse"><stop offset="0" stop-color="#5ea0ef"/><stop offset=".18" stop-color="#559cec"/><stop offset=".47" stop-color="#3c91e5"/><stop offset=".84" stop-color="#1380da"/><stop offset="1" stop-color="#0078d4"/></linearGradient></defs><title>Icon-networking-67</title><path fill="#0078d4" d="M16.36 8.4c0 4.84-5.85 8.74-7.12 9.53a.46.46 0 01-.48 0c-1.27-.79-7.12-4.69-7.12-9.53V2.58a.46.46 0 01.45-.46C6.64 2 5.59 0 9 0s2.36 2 6.91 2.12a.46.46 0 01.45.46z"/><path fill="#6bb9f2" d="M15.75 8.45c0 4.44-5.36 8-6.53 8.74a.43.43 0 01-.44 0c-1.17-.72-6.53-4.3-6.53-8.74V3.11a.42.42 0 01.41-.42C6.83 2.58 5.87.75 9 .75s2.17 1.83 6.34 1.94a.42.42 0 01.41.42z"/><path fill="url(#ygc3_11)" d="M9 9V.75c3.13 0 2.17 1.83 6.34 1.94a.43.43 0 01.41.43v5.34a4.89 4.89 0 010 .54zm0 0H2.28c.4 4.18 5.38 7.5 6.5 8.19a.39.39 0 00.18.06H9z"/><path fill="#50e6ff" d="M2.66 2.69C6.83 2.58 5.87.75 9 .75V9H2.28a4.89 4.89 0 010-.54V3.12a.43.43 0 01.38-.43zM15.72 9H9v8.25a.39.39 0 00.18-.06c1.16-.69 6.14-4.01 6.54-8.19z"/></g></svg>
        </g></g><g transform="translate(1510 0)"><g transform="scale(2.78)">
            <svg svgBox="0 0 18 18" fill="msportalfx-svg-placeholder" role="presentation" focusable="false"><g><title/><defs><linearGradient id="ygc3_12" x1="9.88" x2="11.52" y1="8.59" y2="10.23" gradientTransform="rotate(-.08 -285.464 -1454.08)" gradientUnits="userSpaceOnUse"><stop offset="0" stop-color="#86d633"/><stop offset=".24" stop-color="#83d232"/><stop offset=".5" stop-color="#7cc52f"/><stop offset=".76" stop-color="#6fb02a"/><stop offset="1" stop-color="#5e9624"/></linearGradient><linearGradient id="ygc3_13" x1="6.18" x2="7.81" y1="8.59" y2="10.23"/><linearGradient id="ygc3_14" x1="2.48" x2="4.11" y1="8.59" y2="10.23"/></defs><title>Icon-networking-61</title><circle cx="12.74" cy="8.99" r="1.16" fill="url(#ygc3_12)"/><circle cx="9.04" cy="9" r="1.16" fill="url(#ygc3_13)"/><circle cx="5.34" cy="9" r="1.16" fill="url(#ygc3_14)"/><path fill="#50e6ff" d="M6.182 13.638l-.664.665a.3.3 0 01-.424 0L.18 9.404a.6.6 0 01-.001-.848l.663-.666 5.34 5.324a.3.3 0 010 .425z"/><path fill="#1490df" d="M5.418 3.708l.666.664a.3.3 0 010 .424L.838 10.057l-.666-.663a.6.6 0 01-.001-.849L4.994 3.71a.3.3 0 01.424 0z"/><path fill="#50e6ff" d="M17.157 7.88l.663.666a.6.6 0 010 .848l-4.915 4.9a.3.3 0 01-.424 0l-.664-.666a.3.3 0 010-.424l5.34-5.324z"/><path fill="#1490df" d="M17.818 9.387l-.665.664-5.247-5.261a.3.3 0 010-.425l.674-.67a.3.3 0 01.424 0l4.823 4.836a.6.6 0 01-.002.849z"/></g></svg>
        </g></g><g transform="translate(1510 100)"><g transform="scale(1.0)">
            <svg svgBox="0 0 50 50" fill="msportalfx-svg-placeholder" role="presentation" focusable="false"><g><title/><path d="M49.7 25.7c.5-.5.4-1.3 0-1.8l-2.4-2.4L36.5 11c-.5-.5-1.2-.5-1.7 0s-.6 1.3 0 1.8l11.3 11.1c.5.5.5 1.3 0 1.8L34.6 37.2c-.5.5-.5 1.3 0 1.8s1.3.4 1.7 0L47 28.4l.1-.1 2.6-2.6zm-49.4 0c-.5-.5-.4-1.3 0-1.8l2.4-2.4L13.5 11c.5-.5 1.2-.5 1.7 0s.6 1.3 0 1.8L4.1 23.9c-.5.5-.5 1.3 0 1.8l11.3 11.5c.5.5.5 1.3 0 1.8s-1.3.4-1.7 0L2.8 28.5l-.1-.1-2.4-2.7z" fill="#3999C6"/><path d="M28.4 24.8c0 1.9-1.6 3.3-3.3 3.3-1.7 0-3.5-1.6-3.5-3.3s1.4-3.3 3.5-3.3c2 0 3.3 1.6 3.3 3.3z" fill="#7fba00"/></g></svg>
        </g></g><g transform="translate(1510 180)"><g transform="scale(2.78)">
            <svg svgBox="0 0 18 18" fill="msportalfx-svg-placeholder" role="presentation" focusable="false"><g><title/><defs><linearGradient id="ygc3_15" x1="9.01" x2="9.01" y1="16.5" y2="1.5" gradientUnits="userSpaceOnUse"><stop offset="0" stop-color="#5e9641"/><stop offset=".34" stop-color="#6baa42"/><stop offset=".67" stop-color="#73b743"/><stop offset="1" stop-color="#76bb43"/></linearGradient></defs><title>Icon-networking-80</title><path fill="#ffca00" d="M15.89 2.91h1.27a.34.34 0 01.34.34v3.5a.34.34 0 01-.34.34h-1.27V2.91zm0 6.09h1.27a.34.34 0 01.34.34v5.86a.34.34 0 01-.34.34h-1.27V9z"/><rect width="13.76" height="15" x="2.13" y="1.5" fill="url(#ygc3_15)" rx=".69"/><path fill="#b4ec36" d="M5.9 12.9h-.71a.2.2 0 01-.19-.21V4.34a.19.19 0 01.19-.2h1.93a.19.19 0 01.19.2.2.2 0 01-.19.21H5.38v7.93h.52a.2.2 0 01.19.21.21.21 0 01-.19.21z"/><path fill="#b4ec36" d="M6 13.92H4.4a.2.2 0 01-.19-.21L4.08 3.38a.2.2 0 01.06-.15.16.16 0 01.13-.06h2.85v.41H4.47l.12 9.92H6zm6-.92h-1.59a.19.19 0 01-.14-.07.18.18 0 01-.06-.14V7.9a.19.19 0 01.19-.2h.91V5.45h.38v2.44a.2.2 0 01-.18.21h-.91v4.42H12z"/><rect width="6.14" height="3.11" x="7.07" y="2.29" fill="#365615" rx=".26"/><rect width="4.9" height="1.09" x="5.86" y="12.69" fill="#365615" rx=".26" transform="rotate(90 8.305 13.235)"/><rect width="4.9" height="1.09" x="3.99" y="12.71" fill="#365615" rx=".26" transform="rotate(90 6.44 13.26)"/><rect width="4.9" height="1.09" x="9.98" y="12.71" fill="#f2f2f2" rx=".26" transform="rotate(90 12.425 13.255)"/><ellipse cx="8.11" cy="8.06" fill="#f2f2f2" rx="1.04" ry="1.12"/><path fill="#3b3b3b" d="M2.11 12.25H.84a.34.34 0 01-.34-.3V6.09a.34.34 0 01.34-.34h1.27v6.5z"/></g></svg>
        </g></g><g transform="translate(1360 270)"><g transform="scale(2.78)">
            <svg svgBox="0 0 18 18" fill="msportalfx-svg-placeholder" role="presentation" focusable="false"><g><title/><defs><linearGradient id="ygc3_16" x1="8.88" x2="8.88" y1="12.21" y2=".21" gradientUnits="userSpaceOnUse"><stop offset="0" stop-color="#0078d4"/><stop offset=".82" stop-color="#5ea0ef"/></linearGradient><linearGradient id="ygc3_17" x1="8.88" x2="8.88" y1="16.84" y2="12.21" gradientUnits="userSpaceOnUse"><stop offset=".15" stop-color="#ccc"/><stop offset="1" stop-color="#707070"/></linearGradient></defs><title>Icon-compute-21</title><rect width="18" height="12" x="-.12" y=".21" fill="url(#ygc3_16)" rx=".6"/><path fill="#50e6ff" d="M11.88 4.46v3.49l-3 1.76v-3.5l3-1.75z"/><path fill="#c3f1ff" d="M11.88 4.46l-3 1.76-3-1.76 3-1.75 3 1.75z"/><path fill="#9cebff" d="M8.88 6.22v3.49l-3-1.76V4.46l3 1.76z"/><path fill="#c3f1ff" d="M5.88 7.95l3-1.74v3.5l-3-1.76z"/><path fill="#9cebff" d="M11.88 7.95l-3-1.74v3.5l3-1.76z"/><path fill="url(#ygc3_17)" d="M12.49 15.84c-1.78-.28-1.85-1.56-1.85-3.63H7.11c0 2.07-.06 3.35-1.84 3.63a1 1 0 00-.89 1h9a1 1 0 00-.89-1z"/></g></svg>
        </g></g><g transform="translate(1510 270)"><g transform="scale(2.78)">
            <svg svgBox="0 0 18 18" fill="msportalfx-svg-placeholder" role="presentation" focusable="false"><g><title/><defs><linearGradient id="ygc3_18" x1="9.01" x2="9.01" y1=".75" y2="17.25" gradientUnits="userSpaceOnUse"><stop offset="0" stop-color="#5ea0ef"/><stop offset=".18" stop-color="#559cec"/><stop offset=".47" stop-color="#3c91e5"/><stop offset=".84" stop-color="#1380da"/><stop offset="1" stop-color="#0078d4"/></linearGradient></defs><title>Icon-networking-67</title><path fill="#0078d4" d="M16.36 8.4c0 4.84-5.85 8.74-7.12 9.53a.46.46 0 01-.48 0c-1.27-.79-7.12-4.69-7.12-9.53V2.58a.46.46 0 01.45-.46C6.64 2 5.59 0 9 0s2.36 2 6.91 2.12a.46.46 0 01.45.46z"/><path fill="#6bb9f2" d="M15.75 8.45c0 4.44-5.36 8-6.53 8.74a.43.43 0 01-.44 0c-1.17-.72-6.53-4.3-6.53-8.74V3.11a.42.42 0 01.41-.42C6.83 2.58 5.87.75 9 .75s2.17 1.83 6.34 1.94a.42.42 0 01.41.42z"/><path fill="url(#ygc3_18)" d="M9 9V.75c3.13 0 2.17 1.83 6.34 1.94a.43.43 0 01.41.43v5.34a4.89 4.89 0 010 .54zm0 0H2.28c.4 4.18 5.38 7.5 6.5 8.19a.39.39 0 00.18.06H9z"/><path fill="#50e6ff" d="M2.66 2.69C6.83 2.58 5.87.75 9 .75V9H2.28a4.89 4.89 0 010-.54V3.12a.43.43 0 01.38-.43zM15.72 9H9v8.25a.39.39 0 00.18-.06c1.16-.69 6.14-4.01 6.54-8.19z"/></g></svg>
        </g></g><g transform="translate(1660 270)"><g transform="scale(2.78)">
            <svg svgBox="0 0 18 18" fill="msportalfx-svg-placeholder" role="presentation" focusable="false"><g><title/><defs><linearGradient id="ygc3_19" x1="9" x2="9" y1="15.83" y2="5.79" gradientUnits="userSpaceOnUse"><stop offset="0" stop-color="#32bedd"/><stop offset=".18" stop-color="#32caea"/><stop offset=".41" stop-color="#32d2f2"/><stop offset=".78" stop-color="#32d4f5"/></linearGradient></defs><title>Icon-networking-69</title><path fill="url(#ygc3_19)" d="M.5 5.79h17v9.48a.57.57 0 01-.57.57H1.07a.57.57 0 01-.57-.57V5.79z"/><path fill="#767676" d="M1.07 2.17h15.86a.57.57 0 01.57.57v3.05H.5V2.73a.57.57 0 01.57-.56z"/><circle cx="12.82" cy="10.19" r="1.38" fill="#f2f2f2"/><circle cx="9.06" cy="10.19" r="1.38" fill="#f2f2f2"/><circle cx="5.18" cy="10.19" r="1.38" fill="#f2f2f2"/><rect width="12.43" height="1.46" x="2.79" y="3.25" fill="#f2f2f2" rx=".28"/></g></svg>
        </g></g><g transform="translate(766.25 0)"><g transform="scale(2.78)">
            <svg svgBox="0 0 18 18" fill="msportalfx-svg-placeholder" role="presentation" focusable="false"><g><title/><defs><linearGradient id="ygc3_20" x1="9.88" x2="11.52" y1="8.59" y2="10.23" gradientTransform="rotate(-.08 -285.464 -1454.08)" gradientUnits="userSpaceOnUse"><stop offset="0" stop-color="#86d633"/><stop offset=".24" stop-color="#83d232"/><stop offset=".5" stop-color="#7cc52f"/><stop offset=".76" stop-color="#6fb02a"/><stop offset="1" stop-color="#5e9624"/></linearGradient><linearGradient id="ygc3_21" x1="6.18" x2="7.81" y1="8.59" y2="10.23"/><linearGradient id="ygc3_22" x1="2.48" x2="4.11" y1="8.59" y2="10.23"/></defs><title>Icon-networking-61</title><circle cx="12.74" cy="8.99" r="1.16" fill="url(#ygc3_20)"/><circle cx="9.04" cy="9" r="1.16" fill="url(#ygc3_21)"/><circle cx="5.34" cy="9" r="1.16" fill="url(#ygc3_22)"/><path fill="#50e6ff" d="M6.182 13.638l-.664.665a.3.3 0 01-.424 0L.18 9.404a.6.6 0 01-.001-.848l.663-.666 5.34 5.324a.3.3 0 010 .425z"/><path fill="#1490df" d="M5.418 3.708l.666.664a.3.3 0 010 .424L.838 10.057l-.666-.663a.6.6 0 01-.001-.849L4.994 3.71a.3.3 0 01.424 0z"/><path fill="#50e6ff" d="M17.157 7.88l.663.666a.6.6 0 010 .848l-4.915 4.9a.3.3 0 01-.424 0l-.664-.666a.3.3 0 010-.424l5.34-5.324z"/><path fill="#1490df" d="M17.818 9.387l-.665.664-5.247-5.261a.3.3 0 010-.425l.674-.67a.3.3 0 01.424 0l4.823 4.836a.6.6 0 01-.002.849z"/></g></svg>
        </g></g><g transform="translate(1060 100)"><g transform="scale(1.0)">
            <svg svgBox="0 0 50 50" fill="msportalfx-svg-placeholder" role="presentation" focusable="false"><g><title/><path d="M49.7 25.7c.5-.5.4-1.3 0-1.8l-2.4-2.4L36.5 11c-.5-.5-1.2-.5-1.7 0s-.6 1.3 0 1.8l11.3 11.1c.5.5.5 1.3 0 1.8L34.6 37.2c-.5.5-.5 1.3 0 1.8s1.3.4 1.7 0L47 28.4l.1-.1 2.6-2.6zm-49.4 0c-.5-.5-.4-1.3 0-1.8l2.4-2.4L13.5 11c.5-.5 1.2-.5 1.7 0s.6 1.3 0 1.8L4.1 23.9c-.5.5-.5 1.3 0 1.8l11.3 11.5c.5.5.5 1.3 0 1.8s-1.3.4-1.7 0L2.8 28.5l-.1-.1-2.4-2.7z" fill="#3999C6"/><path d="M28.4 24.8c0 1.9-1.6 3.3-3.3 3.3-1.7 0-3.5-1.6-3.5-3.3s1.4-3.3 3.5-3.3c2 0 3.3 1.6 3.3 3.3z" fill="#7fba00"/></g></svg>
        </g></g><g transform="translate(1060 180)"><g transform="scale(2.78)">
            <svg svgBox="0 0 18 18" fill="msportalfx-svg-placeholder" role="presentation" focusable="false"><g><title/><defs><linearGradient id="ygc3_23" x1="9.01" x2="9.01" y1="16.5" y2="1.5" gradientUnits="userSpaceOnUse"><stop offset="0" stop-color="#5e9641"/><stop offset=".34" stop-color="#6baa42"/><stop offset=".67" stop-color="#73b743"/><stop offset="1" stop-color="#76bb43"/></linearGradient></defs><title>Icon-networking-80</title><path fill="#ffca00" d="M15.89 2.91h1.27a.34.34 0 01.34.34v3.5a.34.34 0 01-.34.34h-1.27V2.91zm0 6.09h1.27a.34.34 0 01.34.34v5.86a.34.34 0 01-.34.34h-1.27V9z"/><rect width="13.76" height="15" x="2.13" y="1.5" fill="url(#ygc3_23)" rx=".69"/><path fill="#b4ec36" d="M5.9 12.9h-.71a.2.2 0 01-.19-.21V4.34a.19.19 0 01.19-.2h1.93a.19.19 0 01.19.2.2.2 0 01-.19.21H5.38v7.93h.52a.2.2 0 01.19.21.21.21 0 01-.19.21z"/><path fill="#b4ec36" d="M6 13.92H4.4a.2.2 0 01-.19-.21L4.08 3.38a.2.2 0 01.06-.15.16.16 0 01.13-.06h2.85v.41H4.47l.12 9.92H6zm6-.92h-1.59a.19.19 0 01-.14-.07.18.18 0 01-.06-.14V7.9a.19.19 0 01.19-.2h.91V5.45h.38v2.44a.2.2 0 01-.18.21h-.91v4.42H12z"/><rect width="6.14" height="3.11" x="7.07" y="2.29" fill="#365615" rx=".26"/><rect width="4.9" height="1.09" x="5.86" y="12.69" fill="#365615" rx=".26" transform="rotate(90 8.305 13.235)"/><rect width="4.9" height="1.09" x="3.99" y="12.71" fill="#365615" rx=".26" transform="rotate(90 6.44 13.26)"/><rect width="4.9" height="1.09" x="9.98" y="12.71" fill="#f2f2f2" rx=".26" transform="rotate(90 12.425 13.255)"/><ellipse cx="8.11" cy="8.06" fill="#f2f2f2" rx="1.04" ry="1.12"/><path fill="#3b3b3b" d="M2.11 12.25H.84a.34.34 0 01-.34-.3V6.09a.34.34 0 01.34-.34h1.27v6.5z"/></g></svg>
        </g></g><g transform="translate(1210 270)"><g transform="scale(2.78)">
            <svg svgBox="0 0 18 18" fill="msportalfx-svg-placeholder" role="presentation" focusable="false"><g><title/><defs><linearGradient id="ygc3_24" x1="8.88" x2="8.88" y1="12.21" y2=".21" gradientUnits="userSpaceOnUse"><stop offset="0" stop-color="#0078d4"/><stop offset=".82" stop-color="#5ea0ef"/></linearGradient><linearGradient id="ygc3_25" x1="8.88" x2="8.88" y1="16.84" y2="12.21" gradientUnits="userSpaceOnUse"><stop offset=".15" stop-color="#ccc"/><stop offset="1" stop-color="#707070"/></linearGradient></defs><title>Icon-compute-21</title><rect width="18" height="12" x="-.12" y=".21" fill="url(#ygc3_24)" rx=".6"/><path fill="#50e6ff" d="M11.88 4.46v3.49l-3 1.76v-3.5l3-1.75z"/><path fill="#c3f1ff" d="M11.88 4.46l-3 1.76-3-1.76 3-1.75 3 1.75z"/><path fill="#9cebff" d="M8.88 6.22v3.49l-3-1.76V4.46l3 1.76z"/><path fill="#c3f1ff" d="M5.88 7.95l3-1.74v3.5l-3-1.76z"/><path fill="#9cebff" d="M11.88 7.95l-3-1.74v3.5l3-1.76z"/><path fill="url(#ygc3_25)" d="M12.49 15.84c-1.78-.28-1.85-1.56-1.85-3.63H7.11c0 2.07-.06 3.35-1.84 3.63a1 1 0 00-.89 1h9a1 1 0 00-.89-1z"/></g></svg>
        </g></g><g transform="translate(1060 270)"><g transform="scale(2.78)">
            <svg svgBox="0 0 18 18" fill="msportalfx-svg-placeholder" role="presentation" focusable="false"><g><title/><defs><linearGradient id="ygc3_26" x1="9.01" x2="9.01" y1=".75" y2="17.25" gradientUnits="userSpaceOnUse"><stop offset="0" stop-color="#5ea0ef"/><stop offset=".18" stop-color="#559cec"/><stop offset=".47" stop-color="#3c91e5"/><stop offset=".84" stop-color="#1380da"/><stop offset="1" stop-color="#0078d4"/></linearGradient></defs><title>Icon-networking-67</title><path fill="#0078d4" d="M16.36 8.4c0 4.84-5.85 8.74-7.12 9.53a.46.46 0 01-.48 0c-1.27-.79-7.12-4.69-7.12-9.53V2.58a.46.46 0 01.45-.46C6.64 2 5.59 0 9 0s2.36 2 6.91 2.12a.46.46 0 01.45.46z"/><path fill="#6bb9f2" d="M15.75 8.45c0 4.44-5.36 8-6.53 8.74a.43.43 0 01-.44 0c-1.17-.72-6.53-4.3-6.53-8.74V3.11a.42.42 0 01.41-.42C6.83 2.58 5.87.75 9 .75s2.17 1.83 6.34 1.94a.42.42 0 01.41.42z"/><path fill="url(#ygc3_26)" d="M9 9V.75c3.13 0 2.17 1.83 6.34 1.94a.43.43 0 01.41.43v5.34a4.89 4.89 0 010 .54zm0 0H2.28c.4 4.18 5.38 7.5 6.5 8.19a.39.39 0 00.18.06H9z"/><path fill="#50e6ff" d="M2.66 2.69C6.83 2.58 5.87.75 9 .75V9H2.28a4.89 4.89 0 010-.54V3.12a.43.43 0 01.38-.43zM15.72 9H9v8.25a.39.39 0 00.18-.06c1.16-.69 6.14-4.01 6.54-8.19z"/></g></svg>
        </g></g><g transform="translate(910 270)"><g transform="scale(2.78)">
            <svg svgBox="0 0 18 18" fill="msportalfx-svg-placeholder" role="presentation" focusable="false"><g><title/><defs><linearGradient id="ygc3_27" x1="9" x2="9" y1="15.83" y2="5.79" gradientUnits="userSpaceOnUse"><stop offset="0" stop-color="#32bedd"/><stop offset=".18" stop-color="#32caea"/><stop offset=".41" stop-color="#32d2f2"/><stop offset=".78" stop-color="#32d4f5"/></linearGradient></defs><title>Icon-networking-69</title><path fill="url(#ygc3_27)" d="M.5 5.79h17v9.48a.57.57 0 01-.57.57H1.07a.57.57 0 01-.57-.57V5.79z"/><path fill="#767676" d="M1.07 2.17h15.86a.57.57 0 01.57.57v3.05H.5V2.73a.57.57 0 01.57-.56z"/><circle cx="12.82" cy="10.19" r="1.38" fill="#f2f2f2"/><circle cx="9.06" cy="10.19" r="1.38" fill="#f2f2f2"/><circle cx="5.18" cy="10.19" r="1.38" fill="#f2f2f2"/><rect width="12.43" height="1.46" x="2.79" y="3.25" fill="#f2f2f2" rx=".28"/></g></svg>
        </g></g><g transform="translate(910 100)"><g transform="scale(1.0)">
            <svg svgBox="0 0 50 50" fill="msportalfx-svg-placeholder" role="presentation" focusable="false"><g><title/><path d="M49.7 25.7c.5-.5.4-1.3 0-1.8l-2.4-2.4L36.5 11c-.5-.5-1.2-.5-1.7 0s-.6 1.3 0 1.8l11.3 11.1c.5.5.5 1.3 0 1.8L34.6 37.2c-.5.5-.5 1.3 0 1.8s1.3.4 1.7 0L47 28.4l.1-.1 2.6-2.6zm-49.4 0c-.5-.5-.4-1.3 0-1.8l2.4-2.4L13.5 11c.5-.5 1.2-.5 1.7 0s.6 1.3 0 1.8L4.1 23.9c-.5.5-.5 1.3 0 1.8l11.3 11.5c.5.5.5 1.3 0 1.8s-1.3.4-1.7 0L2.8 28.5l-.1-.1-2.4-2.7z" fill="#3999C6"/><path d="M28.4 24.8c0 1.9-1.6 3.3-3.3 3.3-1.7 0-3.5-1.6-3.5-3.3s1.4-3.3 3.5-3.3c2 0 3.3 1.6 3.3 3.3z" fill="#7fba00"/></g></svg>
        </g></g><g transform="translate(760 100)"><g transform="scale(1.0)">
            <svg svgBox="0 0 50 50" fill="msportalfx-svg-placeholder" role="presentation" focusable="false"><g><title/><path d="M49.7 25.7c.5-.5.4-1.3 0-1.8l-2.4-2.4L36.5 11c-.5-.5-1.2-.5-1.7 0s-.6 1.3 0 1.8l11.3 11.1c.5.5.5 1.3 0 1.8L34.6 37.2c-.5.5-.5 1.3 0 1.8s1.3.4 1.7 0L47 28.4l.1-.1 2.6-2.6zm-49.4 0c-.5-.5-.4-1.3 0-1.8l2.4-2.4L13.5 11c.5-.5 1.2-.5 1.7 0s.6 1.3 0 1.8L4.1 23.9c-.5.5-.5 1.3 0 1.8l11.3 11.5c.5.5.5 1.3 0 1.8s-1.3.4-1.7 0L2.8 28.5l-.1-.1-2.4-2.7z" fill="#3999C6"/><path d="M28.4 24.8c0 1.9-1.6 3.3-3.3 3.3-1.7 0-3.5-1.6-3.5-3.3s1.4-3.3 3.5-3.3c2 0 3.3 1.6 3.3 3.3z" fill="#7fba00"/></g></svg>
        </g></g><g transform="translate(610 100)"><g transform="scale(1.0)">
            <svg svgBox="0 0 50 50" fill="msportalfx-svg-placeholder" role="presentation" focusable="false"><g><title/><path d="M49.7 25.7c.5-.5.4-1.3 0-1.8l-2.4-2.4L36.5 11c-.5-.5-1.2-.5-1.7 0s-.6 1.3 0 1.8l11.3 11.1c.5.5.5 1.3 0 1.8L34.6 37.2c-.5.5-.5 1.3 0 1.8s1.3.4 1.7 0L47 28.4l.1-.1 2.6-2.6zm-49.4 0c-.5-.5-.4-1.3 0-1.8l2.4-2.4L13.5 11c.5-.5 1.2-.5 1.7 0s.6 1.3 0 1.8L4.1 23.9c-.5.5-.5 1.3 0 1.8l11.3 11.5c.5.5.5 1.3 0 1.8s-1.3.4-1.7 0L2.8 28.5l-.1-.1-2.4-2.7z" fill="#3999C6"/><path d="M28.4 24.8c0 1.9-1.6 3.3-3.3 3.3-1.7 0-3.5-1.6-3.5-3.3s1.4-3.3 3.5-3.3c2 0 3.3 1.6 3.3 3.3z" fill="#7fba00"/></g></svg>
        </g></g><g transform="translate(162.6463446227282 46)"><text font-family="Arial" font-size="12px" font-style="normal" font-weight="normal" text-anchor="start" fill="rgb(0,0,0)" fill-opacity="1" dy="1em" transform="translate(0 0)">appVnet</text></g><g transform="translate(473.99309524870114 146)"><text font-family="Arial" font-size="12px" font-style="normal" font-weight="normal" text-anchor="start" fill="rgb(0,0,0)" fill-opacity="1" dy="1em" transform="translate(0 0)">web</text></g><g transform="translate(458.9900717641653 226)"><text font-family="Arial" font-size="12px" font-style="normal" font-weight="normal" text-anchor="start" fill="rgb(0,0,0)" fill-opacity="1" dy="1em" transform="translate(0 0)">web-1-nic</text></g><g transform="translate(618.6581009574808 316)"><text font-family="Arial" font-size="12px" font-style="normal" font-weight="normal" text-anchor="start" fill="rgb(0,0,0)" fill-opacity="1" dy="1em" transform="translate(0 0)">web-1</text></g><g transform="translate(444.09837710064335 316)"><text font-family="Arial" font-size="12px" font-style="normal" font-weight="normal" text-anchor="start" fill="rgb(0,0,0)" fill-opacity="1" dy="1em" transform="translate(0 0)">WebTrafficOnly</text></g><g transform="translate(311.99009051990924 316)"><text font-family="Arial" font-size="12px" font-style="normal" font-weight="normal" text-anchor="start" fill="rgb(0,0,0)" fill-opacity="1" dy="1em" transform="translate(0 0)">web-1-ip</text></g><g transform="translate(165.8261301507962 146)"><text font-family="Arial" font-size="12px" font-style="normal" font-weight="normal" text-anchor="start" fill="rgb(0,0,0)" fill-opacity="1" dy="1em" transform="translate(0 0)">db</text></g><g transform="translate(150.8231066662603 226)"><text font-family="Arial" font-size="12px" font-style="normal" font-weight="normal" text-anchor="start" fill="rgb(0,0,0)" fill-opacity="1" dy="1em" transform="translate(0 0)">db-1-nic</text></g><g transform="translate(172.99113585957573 316)"><text font-family="Arial" font-size="12px" font-style="normal" font-weight="normal" text-anchor="start" fill="rgb(0,0,0)" fill-opacity="1" dy="1em" transform="translate(0 0)">db-1</text></g><g transform="translate(-1.3430006494176325 316)"><text font-family="Arial" font-size="12px" font-style="normal" font-weight="normal" text-anchor="start" fill="rgb(0,0,0)" fill-opacity="1" dy="1em" transform="translate(0 0)">DbTrafficOnly</text></g><g transform="translate(1507.3259988605885 46)"><text font-family="Arial" font-size="12px" font-style="normal" font-weight="normal" text-anchor="start" fill="rgb(0,0,0)" fill-opacity="1" dy="1em" transform="translate(0 0)">dsvm-vnet</text></g><g transform="translate(1500.6521290113847 146)"><text font-family="Arial" font-size="12px" font-style="normal" font-weight="normal" text-anchor="start" fill="rgb(0,0,0)" fill-opacity="1" dy="1em" transform="translate(0 0)">dsvm-subnet</text></g><g transform="translate(1510.9969202482323 226)"><text font-family="Arial" font-size="12px" font-style="normal" font-weight="normal" text-anchor="start" fill="rgb(0,0,0)" fill-opacity="1" dy="1em" transform="translate(0 0)">dsvm-nic</text></g><g transform="translate(1360.6687931968227 316)"><text font-family="Arial" font-size="12px" font-style="normal" font-weight="normal" text-anchor="start" fill="rgb(0,0,0)" fill-opacity="1" dy="1em" transform="translate(0 0)">dsvm-vm</text></g><g transform="translate(1508.9930014699814 316)"><text font-family="Arial" font-size="12px" font-style="normal" font-weight="normal" text-anchor="start" fill="rgb(0,0,0)" fill-opacity="1" dy="1em" transform="translate(0 0)">dsvm-nsg</text></g><g transform="translate(1663.9969390039762 316)"><text font-family="Arial" font-size="12px" font-style="normal" font-weight="normal" text-anchor="start" fill="rgb(0,0,0)" fill-opacity="1" dy="1em" transform="translate(0 0)">dsvm-ip</text></g><g transform="translate(764.9060853011234 46)"><text font-family="Arial" font-size="12px" font-style="normal" font-weight="normal" text-anchor="start" fill="rgb(0,0,0)" fill-opacity="1" dy="1em" transform="translate(0 0)">mainVNet</text></g><g transform="translate(1066.9852389364555 146)"><text font-family="Arial" font-size="12px" font-style="normal" font-weight="normal" text-anchor="start" fill="rgb(0,0,0)" fill-opacity="1" dy="1em" transform="translate(0 0)">default</text></g><g transform="translate(1058.9900717641654 226)"><text font-family="Arial" font-size="12px" font-style="normal" font-weight="normal" text-anchor="start" fill="rgb(0,0,0)" fill-opacity="1" dy="1em" transform="translate(0 0)">paw-1-nic</text></g><g transform="translate(1218.6581009574807 316)"><text font-family="Arial" font-size="12px" font-style="normal" font-weight="normal" text-anchor="start" fill="rgb(0,0,0)" fill-opacity="1" dy="1em" transform="translate(0 0)">paw-1</text></g><g transform="translate(1056.9861529859145 316)"><text font-family="Arial" font-size="12px" font-style="normal" font-weight="normal" text-anchor="start" fill="rgb(0,0,0)" fill-opacity="1" dy="1em" transform="translate(0 0)">paw-1-nsg</text></g><g transform="translate(911.9900905199092 316)"><text font-family="Arial" font-size="12px" font-style="normal" font-weight="normal" text-anchor="start" fill="rgb(0,0,0)" fill-opacity="1" dy="1em" transform="translate(0 0)">paw-1-ip</text></g><g transform="translate(879.6402788979125 146)"><text font-family="Arial" font-size="12px" font-style="normal" font-weight="normal" text-anchor="start" fill="rgb(0,0,0)" fill-opacity="1" dy="1em" transform="translate(0 0)">AzureFirewallSubnet</text></g><g transform="translate(742.3053971411557 146)"><text font-family="Arial" font-size="12px" font-style="normal" font-weight="normal" text-anchor="start" fill="rgb(0,0,0)" fill-opacity="1" dy="1em" transform="translate(0 0)">GatewaySubnet</text></g><g transform="translate(592.6452430158298 146)"><text font-family="Arial" font-size="12px" font-style="normal" font-weight="normal" text-anchor="start" fill="rgb(0,0,0)" fill-opacity="1" dy="1em" transform="translate(0 0)">SharedServices</text></g></g></svg>